<?xml version="1.0" encoding="UTF-8"?>
<!-- Created with Grafika (https://www.grafika.cc/) -->
<svg xmlns="http://www.w3.org/2000/svg" xmlns:svg="http://www.w3.org/2000/svg" xmlns:xlink="http://www.w3.org/1999/xlink" width="255" height="255" viewBox="0 0 255 255" preserveAspectRatio="xMidYMid meet">
	<defs>
		<linearGradient gradientUnits="userSpaceOnUse" gradientTransform="matrix(0.000008775258720561396, -125.00001525878906, 125.00001525878906, 0.000008775258720561396, -0.000008653409167891368, 0.00002622604188218247)" spreadMethod="pad" id="gradient_1" x1="-1" y1="0" x2="1" y2="0">
			<stop offset="0%" stop-color="#03045E" stop-opacity="0.122" />
			<stop offset="100%" stop-color="#006D77" stop-opacity="0.588" />
		</linearGradient>
		<filter id="filter_1" style="color-interpolation-filters:sRGB" primitiveUnits="userSpaceOnUse" x="-0.449" y="-0.241" width="1.898" height="1.482">
			<feGaussianBlur in="SourceAlpha" stdDeviation="8.671046173" />
			<feOffset dx="0" dy="0" />
			<feColorMatrix type="matrix" values="0 0 0 0 1 0 0 0 0 1 0 0 0 0 1 0 0 0 1 0" result="dropShadow_1" />
			<feComposite in="SourceGraphic" in2="dropShadow_1" operator="over" result="Layer1" />
		</filter>
	</defs>
	<g transform="matrix(1, 0, 0, 1, 127.50006103515625, 127.5)">
		<rect x="-125.000061035" y="-125" width="250" height="250" rx="80" ry="80" style="fill:url(#gradient_1);stroke:#FFFFFF;stroke-linecap:round;stroke-linejoin:round;stroke-width:5;" />
		<g transform="matrix(0.5652642250061035, 0, 0, 0.5652642250061035, -0.2350006103515625, -32.872501373291016)" opacity="0.59" style="filter:url(#filter_1)">
			<path d="M-6.138272285,8.635379791 Q-6.138272285,5.603404999 -5.535763741,3.42660141 Q-4.933256149,1.230361938 -3.475575447,-0.752082825 Q-1.998459816,-2.75396347 0.567058563,-4.891895294 Q3.657341003,-7.515720367 5.367685318,-9.264938354 Q7.07803154,-11.033588409 7.797153473,-12.705062866 Q8.516275406,-14.376537323 8.516275406,-16.767131805 Q8.516275406,-20.576538086 6.047937393,-22.636726379 Q3.579597473,-24.716350555 -1.123851776,-24.716350555 Q-5.010998726,-24.716350555 -8.042974472,-23.725128174 Q-11.074949265,-22.733905792 -13.854260445,-21.373401642 L-16.322599411,-26.951461792 Q-13.135138512,-28.622932434 -9.28686142,-29.730770111 Q-5.419149399,-30.838607788 -0.637958527,-30.838607788 Q6.922544479,-30.838607788 11.062356949,-27.087509155 Q15.202169418,-23.355846405 15.202169418,-16.922618866 Q15.202169418,-13.327007294 14.036026001,-10.819797516 Q12.889316559,-8.312583923 10.770822525,-6.194091797 Q8.671762466,-4.095029831 5.81470871,-1.704433441 Q3.190883636,0.511240005 1.791509628,2.182714462 Q0.392137527,3.854187012 -0.093757629,5.486789703 Q-0.560214996,7.119392395 -0.560214996,9.432245255 L-0.560214996,10.792746544 L-6.138272285,10.792746544 L-6.138272285,8.635379791 ZM-7.965231895,22.493061066 Q-7.965231895,19.538829803 -6.565857887,18.353248596 Q-5.166484833,17.148233414 -3.028553963,17.148233414 Q-1.026672363,17.148233414 0.392137527,18.353248596 Q1.830381393,19.538829803 1.830381393,22.493061066 Q1.830381393,25.35011673 0.392137527,26.632875443 Q-1.026672363,27.896198273 -3.028553963,27.896198273 Q-5.166484833,27.896198273 -6.565857887,26.632875443 Q-7.965231895,25.35011673 -7.965231895,22.493061066 Z" fill="#FFFFFF" />
		</g>
		<ellipse cx="-60" cy="50" rx="50" ry="50" style="fill:#FFFFFF;" />
		<ellipse cx="60" cy="50" rx="50" ry="50" style="fill:#FFFFFF;" />
		<ellipse cx="-47.5" cy="37.5" rx="37.5" ry="37.5" style="fill:#9D03A4;" />
		<ellipse cx="47.5" cy="37.5" rx="37.5" ry="37.5" style="fill:#9D03A4;" />
		<g transform="matrix(-0.0000000010973858488583232, -0.2934037148952484, 0.2934037148952484, -0.0000000010973858488583232, -0.00006103515625, 100)">
			<path d="M-5.551562309,50.21074295 Q-6.552538872,50.60136795 -7.553515434,50.039844513 Q-8.554491997,49.502735138 -9.360156059,47.989063263 Q-13.339648247,40.591602325 -15.195116997,32.901172638 Q-17.0505867,25.21074295 -17.0505867,17.3005867 Q-17.0505867,7.803516388 -14.658007622,-1.595897675 Q-12.241015434,-10.995311737 -7.944140434,-19.637889862 Q-3.647264481,-28.30488205 2.138868332,-35.799999237 Q7.949415207,-43.295116425 14.638866425,-49.1056633 Q16.05488205,-50.204296112 17.299999237,-50.350780487 Q18.545116425,-50.497264862 19.253124237,-49.6916008 Q20.0587883,-48.788280487 19.790233612,-47.64081955 Q19.546092987,-46.493358612 18.349803925,-45.3947258 Q12.0509758,-39.803905487 6.704298019,-32.552928925 Q1.357618332,-25.301952362 -2.695116043,-17.001171112 Q-6.747851372,-8.700389862 -8.945116997,0.01543045 Q-11.142382622,8.7068367 -11.142382622,17.3005867 Q-11.142382622,25.21074295 -9.506640434,32.290821075 Q-7.846484184,39.395313263 -4.452928543,45.791797638 Q-3.647264481,47.403125763 -4.062303543,48.5505867 Q-4.452928543,49.698047638 -5.551562309,50.21074295 Z" fill="#FFFFFF" />
		</g>
	</g>
</svg>