<?xml version="1.0" encoding="UTF-8"?>
<!-- Created with Grafika (https://www.grafika.cc/) -->
<svg xmlns="http://www.w3.org/2000/svg" xmlns:svg="http://www.w3.org/2000/svg" xmlns:xlink="http://www.w3.org/1999/xlink" width="250" height="250" viewBox="0 0 250 250" preserveAspectRatio="xMidYMid meet">
	<defs>
		<linearGradient gradientUnits="userSpaceOnUse" gradientTransform="matrix(0.000008775258720561396, -125.00001525878906, 125.00001525878906, 0.000008775258720561396, -0.000008653409167891368, 0.00002622604188218247)" spreadMethod="pad" id="gradient_1" x1="-1" y1="0" x2="1" y2="0">
			<stop offset="0%" stop-color="#03045E" stop-opacity="0.122" />
			<stop offset="100%" stop-color="#006D77" stop-opacity="0.588" />
		</linearGradient>
	</defs>
	<g transform="matrix(1, 0, 0, 1, 125.00006103515625, 125)">
		<rect x="-125.000061035" y="-125" width="250" height="250" style="fill:url(#gradient_1);" />
		<ellipse cx="-60" cy="50" rx="50" ry="50" style="fill:#FFFFFF;" />
		<ellipse cx="60" cy="50" rx="50" ry="50" style="fill:#FFFFFF;" />
		<ellipse cx="-47.5" cy="37.5" rx="37.5" ry="37.5" style="fill:#14213D;" />
		<ellipse cx="47.5" cy="37.5" rx="37.5" ry="37.5" style="fill:#14213D;" />
		<g transform="matrix(-0.0000000010973858488583232, -0.2934037148952484, 0.2934037148952484, -0.0000000010973858488583232, -0.00006103515625, 100)">
			<path d="M-5.551562309,50.21074295 Q-6.552538872,50.60136795 -7.553515434,50.039844513 Q-8.554491997,49.502735138 -9.360156059,47.989063263 Q-13.339648247,40.591602325 -15.195116997,32.901172638 Q-17.0505867,25.21074295 -17.0505867,17.3005867 Q-17.0505867,7.803516388 -14.658007622,-1.595897675 Q-12.241015434,-10.995311737 -7.944140434,-19.637889862 Q-3.647264481,-28.30488205 2.138868332,-35.799999237 Q7.949415207,-43.295116425 14.638866425,-49.1056633 Q16.05488205,-50.204296112 17.299999237,-50.350780487 Q18.545116425,-50.497264862 19.253124237,-49.6916008 Q20.0587883,-48.788280487 19.790233612,-47.64081955 Q19.546092987,-46.493358612 18.349803925,-45.3947258 Q12.0509758,-39.803905487 6.704298019,-32.552928925 Q1.357618332,-25.301952362 -2.695116043,-17.001171112 Q-6.747851372,-8.700389862 -8.945116997,0.01543045 Q-11.142382622,8.7068367 -11.142382622,17.3005867 Q-11.142382622,25.21074295 -9.506640434,32.290821075 Q-7.846484184,39.395313263 -4.452928543,45.791797638 Q-3.647264481,47.403125763 -4.062303543,48.5505867 Q-4.452928543,49.698047638 -5.551562309,50.21074295 Z" fill="#FFFFFF" />
		</g>
	</g>
</svg>