<?xml version="1.0" encoding="UTF-8"?>
<!-- Created with Grafika (https://www.grafika.cc/) -->
<svg xmlns="http://www.w3.org/2000/svg" xmlns:svg="http://www.w3.org/2000/svg" xmlns:xlink="http://www.w3.org/1999/xlink" width="255" height="255" viewBox="0 0 255 255" preserveAspectRatio="xMidYMid meet">
	<defs>
		<linearGradient gradientUnits="userSpaceOnUse" gradientTransform="matrix(0.000008775258720561396, -125.00001525878906, 125.00001525878906, 0.000008775258720561396, -0.000008653409167891368, 0.00002622604188218247)" spreadMethod="pad" id="gradient_1" x1="-1" y1="0" x2="1" y2="0">
			<stop offset="0%" stop-color="#03045E" stop-opacity="0.122" />
			<stop offset="100%" stop-color="#006D77" stop-opacity="0.588" />
		</linearGradient>
		<filter id="filter_1" style="color-interpolation-filters:sRGB" primitiveUnits="userSpaceOnUse" x="-0.204" y="-0.182" width="1.408" height="1.363">
			<feGaussianBlur in="SourceAlpha" stdDeviation="9.761754992" />
			<feOffset dx="0" dy="0" />
			<feColorMatrix type="matrix" values="0 0 0 0 1 0 0 0 0 1 0 0 0 0 1 0 0 0 1 0" result="dropShadow_1" />
			<feComposite in="SourceGraphic" in2="dropShadow_1" operator="over" result="Layer1" />
		</filter>
	</defs>
	<g transform="matrix(1, 0, 0, 1, 127.50006103515625, 127.5)">
		<rect x="-125.000061035" y="-125" width="250" height="250" rx="80" ry="80" style="fill:url(#gradient_1);stroke:#FFFFFF;stroke-linecap:round;stroke-linejoin:round;stroke-width:5;" />
		<g transform="matrix(0.3652859330177307, 0, 0, 0.3652859330177307, -0.00006151199340820312, -32.872501373291016)" opacity="0.59" style="filter:url(#filter_1)">
			<path d="M27.77022934,41.453826904 L17.183486938,14.235074997 L-17.674562454,14.235074997 L-28.14099884,41.453826904 L-39.359336853,41.453826904 L-4.982501984,-46.879295349 L5.002719879,-46.879295349 L39.229167938,41.453826904 L27.77022934,41.453826904 ZM4.010211945,-22.247077942 Q3.649299622,-23.209510803 2.777095795,-25.796043396 Q1.904891968,-28.382575989 1.092842102,-31.14956665 Q0.31086731,-33.946624756 -0.170349121,-35.420349121 Q-0.801944733,-32.954124451 -1.493690491,-30.427742004 Q-2.155361176,-27.901359558 -2.847110748,-25.796043396 Q-3.508781433,-23.720802307 -3.989997864,-22.247077942 L-13.975217819,4.370155334 L13.845054626,4.370155334 L4.010211945,-22.247077942 Z" fill="#FFFFFF" />
		</g>
		<ellipse cx="-60" cy="50" rx="50" ry="50" style="fill:#FFFFFF;" />
		<ellipse cx="60" cy="50" rx="50" ry="50" style="fill:#FFFFFF;" />
		<ellipse cx="-47.5" cy="37.5" rx="37.5" ry="37.5" style="fill:#640D14;" />
		<ellipse cx="47.5" cy="37.5" rx="37.5" ry="37.5" style="fill:#640D14;" />
		<g transform="matrix(-0.0000000010973858488583232, -0.2934037148952484, 0.2934037148952484, -0.0000000010973858488583232, -0.00006103515625, 100)">
			<path d="M-5.551562309,50.21074295 Q-6.552538872,50.60136795 -7.553515434,50.039844513 Q-8.554491997,49.502735138 -9.360156059,47.989063263 Q-13.339648247,40.591602325 -15.195116997,32.901172638 Q-17.0505867,25.21074295 -17.0505867,17.3005867 Q-17.0505867,7.803516388 -14.658007622,-1.595897675 Q-12.241015434,-10.995311737 -7.944140434,-19.637889862 Q-3.647264481,-28.30488205 2.138868332,-35.799999237 Q7.949415207,-43.295116425 14.638866425,-49.1056633 Q16.05488205,-50.204296112 17.299999237,-50.350780487 Q18.545116425,-50.497264862 19.253124237,-49.6916008 Q20.0587883,-48.788280487 19.790233612,-47.64081955 Q19.546092987,-46.493358612 18.349803925,-45.3947258 Q12.0509758,-39.803905487 6.704298019,-32.552928925 Q1.357618332,-25.301952362 -2.695116043,-17.001171112 Q-6.747851372,-8.700389862 -8.945116997,0.01543045 Q-11.142382622,8.7068367 -11.142382622,17.3005867 Q-11.142382622,25.21074295 -9.506640434,32.290821075 Q-7.846484184,39.395313263 -4.452928543,45.791797638 Q-3.647264481,47.403125763 -4.062303543,48.5505867 Q-4.452928543,49.698047638 -5.551562309,50.21074295 Z" fill="#FFFFFF" />
		</g>
	</g>
</svg>