<?xml version="1.0" encoding="UTF-8"?>
<!-- Created with Grafika (https://www.grafika.cc/) -->
<svg xmlns="http://www.w3.org/2000/svg" xmlns:svg="http://www.w3.org/2000/svg" xmlns:xlink="http://www.w3.org/1999/xlink" width="255" height="255" viewBox="0 0 255 255" preserveAspectRatio="xMidYMid meet">
	<defs>
		<linearGradient gradientUnits="userSpaceOnUse" gradientTransform="matrix(0.000008775258720561396, -125.00001525878906, 125.00001525878906, 0.000008775258720561396, -0.000008653409167891368, 0.00002622604188218247)" spreadMethod="pad" id="gradient_1" x1="-1" y1="0" x2="1" y2="0">
			<stop offset="0%" stop-color="#03045E" stop-opacity="0.122" />
			<stop offset="100%" stop-color="#006D77" stop-opacity="0.588" />
		</linearGradient>
		<filter id="filter_1" style="color-interpolation-filters:sRGB" primitiveUnits="userSpaceOnUse" x="-0.243" y="-0.348" width="1.486" height="1.696">
			<feGaussianBlur in="SourceAlpha" stdDeviation="13.144341393" />
			<feOffset dx="0" dy="0" />
			<feColorMatrix type="matrix" values="0 0 0 0 1 0 0 0 0 1 0 0 0 0 1 0 0 0 1 0" result="dropShadow_1" />
			<feComposite in="SourceGraphic" in2="dropShadow_1" operator="over" result="Layer1" />
		</filter>
	</defs>
	<g transform="matrix(1, 0, 0, 1, 127.50006103515625, 127.5)">
		<rect x="-125.000061035" y="-125" width="250" height="250" rx="80" ry="80" style="fill:url(#gradient_1);stroke:#FFFFFF;stroke-linecap:round;stroke-linejoin:round;stroke-width:5;" />
		<g transform="matrix(0.3652859330177307, 0, 0, 0.3652859330177307, -0.00006103515625, -26.684139251708984)" opacity="0.59" style="filter:url(#filter_1)">
			<path d="M41.796875,31.989845276 L40.33203125,32.038673401 L23.73046875,32.038673401 Q23.095703125,32.038673401 22.0703125,32.087501526 L16.9921875,32.282814026 Q15.52734375,32.282814026 14.16015625,32.331642151 Q8.10546875,32.331642151 7.055664063,31.281837463 Q6.005859375,30.232032776 -2.5390625,25.739845276 L-5.029296875,24.470314026 Q-5.517578125,24.226173401 -6.640625,23.591407776 L-12.255859375,20.612892151 Q-13.037109375,20.222267151 -15.112304688,19.123634338 Q-17.1875,18.025001526 -18.017578125,17.536720276 L-19.824220657,16.657814026 Q-20.263673782,16.462501526 -21.386720657,15.827735901 L-24.121095657,14.411720276 Q-25.683595657,13.630470276 -27.490236282,12.653907776 L-40.625,5.671485901 Q-42.333984375,0.983985901 -42.846679688,-1.994529724 Q-43.359375,-4.973045349 -45.068359375,-10.734764099 Q-42.626953125,-15.959373474 -41.064453125,-18.278709412 Q-39.501953125,-20.598045349 -39.404296875,-20.695701599 L-37.890625,-23.185935974 Q-37.01171875,-24.650779724 -36.03515625,-26.359764099 Q-34.5703125,-26.701560974 -33.251953125,-27.043357849 L-31.005861282,-27.629295349 Q-29.785158157,-27.922264099 -29.199220657,-28.166404724 Q-28.613283157,-28.410545349 -27.294923782,-28.801170349 L-24.560548782,-29.582420349 Q-22.949220657,-30.070701599 -21.044923782,-30.558982849 L-15.283203125,-26.994529724 Q-14.208984375,-26.310935974 -13.0859375,-25.676170349 L-11.083984375,-24.455467224 Q-8.88671875,-23.137107849 -8.618164063,-23.137107849 Q-8.349609375,-23.137107849 -4.98046875,-21.037498474 L-2.099609375,-19.230857849 Q3.759765625,-15.519920349 4.541015625,-14.763084412 Q5.322265625,-14.006248474 9.326171875,-11.711326599 L13.76953125,-9.172264099 L21.826171875,-4.533592224 L23.33984375,-3.557029724 L24.51171875,-2.531639099 Q25.68359375,-1.506248474 27.392578125,0.300392151 Q29.1015625,2.107032776 30.37109375,4.157814026 L35.83984375,13.337501526 Q44.482421875,27.692970276 44.775390625,28.645118713 Q45.068359375,29.597267151 45.068359375,30.036720276 Q45.068359375,31.159767151 44.067382813,31.574806213 Q43.06640625,31.989845276 41.796875,31.989845276 ZM22.75390625,-0.139060974 L15.966796875,-4.533592224 Q15.283203125,-4.973045349 14.233398438,-5.534568787 Q13.18359375,-6.096092224 12.158203125,-6.633201599 L10.15625,-7.609764099 Q9.1796875,-8.049217224 8.740234375,-8.342185974 L1.025390625,-13.224998474 Q-0.439453125,-14.103904724 -1.025390625,-14.543357849 L-4.39453125,-16.740623474 L-7.177734375,-18.498435974 L-10.25390625,-20.402732849 Q-13.8671875,-22.648826599 -18.261720657,-25.334373474 L-17.3828125,-23.088279724 Q-17.041015625,-22.209373474 -16.748046875,-21.379295349 Q-16.455078125,-20.549217224 -16.455078125,-20.158592224 Q-16.455078125,-19.474998474 -15.673828125,-17.375389099 Q-14.892578125,-15.275779724 -14.501953125,-14.494529724 Q-14.111328125,-13.713279724 -12.109375,-12.614646912 Q-10.107421875,-11.516014099 -9.252929688,-10.637107849 Q-8.3984375,-9.758201599 -7.177734375,-8.976951599 L-5.95703125,-8.146873474 Q-5.322265625,-7.707420349 -4.711914063,-7.390037537 Q-4.1015625,-7.072654724 -3.662109375,-6.926170349 L-2.490234375,-6.535545349 Q-0.29296875,-5.656639099 0.78125,-4.875389099 Q1.85546875,-4.094139099 3.564453125,-3.459373474 L4.78515625,-3.019920349 Q5.46875,-2.726951599 5.834960938,-2.482810974 Q6.201171875,-2.238670349 6.8359375,-1.848045349 L9.765625,0.056251526 Q10.44921875,0.495704651 10.7421875,0.642189026 L16.11328125,3.083595276 Q18.1640625,4.011329651 19.213867188,4.670509338 Q20.263671875,5.329689026 22.55859375,6.648048401 L22.75390625,-0.139060974 ZM35.791015625,19.001564026 L34.375,17.048439026 Q33.49609375,15.925392151 32.373046875,14.069923401 Q31.25,12.214454651 30.37109375,10.603126526 L29.541015625,9.040626526 Q29.248046875,8.454689026 28.637695313,7.526954651 Q28.02734375,6.599220276 27.44140625,5.769142151 L25.9765625,3.669532776 L25.78125,4.890235901 Q25.634765625,6.013282776 25.634765625,7.331642151 Q25.634765625,7.673439026 25.68359375,7.941993713 Q25.732421875,8.210548401 25.732421875,8.454689026 Q25.830078125,9.089454651 26.733398438,10.676368713 Q27.63671875,12.263282776 28.955078125,14.265235901 Q27.978515625,13.532814026 26.928710938,12.898048401 Q25.87890625,12.263282776 25.244140625,12.263282776 Q24.853515625,12.263282776 24.609375,12.507423401 Q24.365234375,12.751564026 24.365234375,13.435157776 Q24.365234375,14.411720276 26.220703125,16.584571838 Q28.076171875,18.757423401 30.56640625,21.052345276 L27.783203125,19.880470276 L25.634765625,19.050392151 Q24.609375,18.659767151 24.169921875,18.659767151 L22.8515625,18.659767151 Q20.99609375,18.659767151 20.166015625,19.758399963 Q19.3359375,20.857032776 19.3359375,21.638282776 Q19.3359375,22.566017151 20.1171875,23.322853088 Q20.8984375,24.079689026 22.16796875,25.056251526 Q21.875,24.958595276 21.58203125,24.958595276 L21.044921875,24.958595276 Q20.21484375,24.958595276 19.311523438,25.105079651 Q18.408203125,25.251564026 17.138671875,25.251564026 Q15.185546875,25.251564026 13.818359375,26.350196838 Q12.451171875,27.448829651 11.572265625,28.669532776 Q12.01171875,28.669532776 12.59765625,28.718360901 Q13.18359375,28.767189026 13.96484375,28.767189026 Q15.380859375,28.767189026 17.08984375,28.718360901 L24.365234375,28.474220276 L35.15625,28.669532776 Q36.376953125,28.669532776 37.475585938,26.936134338 Q38.57421875,25.202735901 38.57421875,24.030860901 Q38.57421875,23.542579651 37.6953125,22.028907776 Q36.81640625,20.515235901 35.791015625,19.001564026 ZM20.166015625,9.626564026 L17.529296875,8.064064026 L15.673828125,7.038673401 Q14.697265625,6.550392151 14.135742188,6.257423401 Q13.57421875,5.964454651 12.59765625,5.280860901 L10.546875,3.864845276 Q7.03125,1.472267151 5.786132813,1.399024963 Q4.541015625,1.325782776 2.587890625,-0.139060974 L-0.830078125,-2.678123474 L-2.05078125,-3.557029724 Q-2.44140625,-3.849998474 -3.393554688,-4.265037537 Q-4.345703125,-4.680076599 -5.419921875,-5.119529724 L-7.421875,-5.851951599 Q-9.130859375,-6.486717224 -10.278320313,-7.341209412 Q-11.42578125,-8.195701599 -12.451171875,-8.781639099 L-13.818359375,-9.562889099 Q-14.6484375,-10.051170349 -15.625,-10.539451599 Q-17.529296875,-8.391014099 -17.529296875,-7.609764099 Q-17.529296875,-6.828514099 -18.652345657,-5.168357849 L-19.482423782,-3.849998474 L-20.410158157,-2.482810974 Q-20.947267532,-1.750389099 -21.435548782,-0.969139099 L-20.166017532,-0.090232849 Q-19.628908157,0.300392151 -18.994142532,0.642189026 Q-18.359376907,0.983985901 -17.822265625,1.228126526 L-16.552734375,1.862892151 Q-14.453125,2.888282776 -12.915039063,4.011329651 Q-11.376953125,5.134376526 -10.64453125,5.573829651 L-8.154296875,6.989845276 L-5.078125,8.698829651 L2.1484375,12.653907776 Q2.83203125,13.044532776 3.955078125,13.752540588 Q5.078125,14.460548401 6.298828125,15.241798401 L8.642578125,16.853126526 Q9.814453125,17.634376526 10.546875,18.073829651 L12.20703125,19.001564026 Q13.0859375,19.538673401 13.916015625,19.929298401 L15.771484375,20.857032776 Q19.580078125,17.683204651 20.166015625,15.681251526 Q20.751953125,13.679298401 21.38671875,12.165626526 L21.97265625,10.847267151 L20.166015625,9.626564026 ZM-17.626953125,-14.348045349 Q-17.919921875,-15.129295349 -19.384767532,-18.718162537 Q-20.849611282,-22.307029724 -21.240236282,-23.527732849 L-21.923830032,-25.578514099 Q-22.119142532,-26.115623474 -22.265626907,-26.750389099 L-24.902345657,-25.724998474 Q-25.976564407,-25.334373474 -27.001955032,-24.992576599 Q-28.027345657,-24.650779724 -28.466798782,-24.553123474 L-29.736330032,-24.260154724 L-31.396486282,-23.771873474 L-33.447265625,-23.137107849 Q-33.935546875,-22.404685974 -34.399414063,-21.769920349 Q-34.86328125,-21.135154724 -35.3515625,-20.256248474 L-36.669921875,-18.058982849 L-38.330078125,-15.519920349 Q-38.720703125,-14.933982849 -38.8671875,-14.543357849 Q-39.013671875,-14.152732849 -39.453125,-13.420310974 L-40.4296875,-11.955467224 Q-40.966796875,-11.076560974 -41.650390625,-10.148826599 L-40.185546875,-5.412498474 Q-39.892578125,-4.435935974 -39.672851563,-3.849998474 Q-39.453125,-3.264060974 -39.0625,-2.189842224 L-37.646484375,2.058204651 Q-37.3046875,2.058204651 -36.865234375,1.960548401 L-34.86328125,1.667579651 Q-33.7890625,1.569923401 -31.005861282,0.324806213 Q-28.222658157,-0.920310974 -28.027345657,-0.969139099 L-27.197267532,-1.262107849 Q-26.904298782,-1.359764099 -26.318361282,-1.530662537 Q-25.732423782,-1.701560974 -25.439455032,-1.750389099 Q-25.341798782,-1.896873474 -24.462892532,-3.337303162 Q-23.583986282,-4.777732849 -23.437501907,-5.217185974 L-22.900392532,-6.535545349 Q-22.021486282,-8.635154724 -21.069337845,-9.660545349 Q-20.117189407,-10.685935974 -19.531251907,-11.711326599 Q-18.945314407,-12.736717224 -17.626953125,-14.348045349 ZM13.134765625,23.444923401 Q12.59765625,23.103126526 12.036132813,22.785743713 Q11.474609375,22.468360901 10.7421875,21.931251526 L9.765625,21.247657776 Q9.375,20.954689026 8.3984375,20.368751526 L4.150390625,17.829689026 Q2.880859375,17.146095276 2.34375,16.731056213 Q1.806640625,16.316017151 -0.634765625,15.290626526 L-2.34375,14.607032776 Q-3.173828125,14.314064026 -3.442382813,14.094337463 Q-3.7109375,13.874610901 -4.296875,13.435157776 L-5.419921875,12.605079651 Q-6.93359375,11.530860901 -7.421875,10.920509338 Q-7.91015625,10.310157776 -9.619140625,9.675392151 L-10.986328125,9.187110901 Q-12.98828125,8.503517151 -14.404296875,7.087501526 Q-15.8203125,5.671485901 -16.918945313,5.476173401 Q-18.017578125,5.280860901 -19.433595657,4.304298401 L-21.533205032,2.888282776 L-23.046876907,2.155860901 Q-23.876955032,1.765235901 -24.658205032,1.472267151 Q-25.488283157,1.765235901 -26.68457222,2.082618713 Q-27.880861282,2.400001526 -28.417970657,2.546485901 L-29.638673782,2.839454651 Q-30.029298782,2.937110901 -30.761720657,3.230079651 Q-31.494142532,3.523048401 -32.2265625,3.913673401 L-34.033203125,4.841407776 Q-31.445314407,6.501564026 -29.12597847,7.941993713 Q-26.806642532,9.382423401 -24.121095657,10.651954651 L-21.044923782,12.067970276 Q-19.921876907,12.605079651 -18.77441597,13.068946838 Q-17.626953125,13.532814026 -14.599609375,15.095314026 L-8.642578125,18.269142151 L-5.029296875,20.271095276 Q-4.6875,20.515235901 -3.955078125,20.905860901 L-2.392578125,21.735939026 L-0.5859375,22.761329651 L1.171875,23.835548401 Q2.24609375,24.519142151 4.272460938,25.544532776 Q6.298828125,26.569923401 8.349609375,27.448829651 L13.134765625,23.444923401 ZM-31.640626907,-5.949607849 Q-33.154296875,-5.949607849 -34.106445313,-7.365623474 Q-35.05859375,-8.781639099 -35.05859375,-10.734764099 Q-35.05859375,-13.957420349 -32.568359375,-16.862693787 Q-30.078126907,-19.767967224 -27.832033157,-19.767967224 Q-26.025392532,-19.767967224 -25.146486282,-18.571678162 Q-24.267580032,-17.375389099 -24.267580032,-15.373435974 Q-24.267580032,-13.664451599 -26.733400345,-9.807029724 Q-29.199220657,-5.949607849 -31.640626907,-5.949607849 Z" fill="#FFFFFF" />
		</g>
		<ellipse cx="-60" cy="50" rx="50" ry="50" style="fill:#FFFFFF;" />
		<ellipse cx="60" cy="50" rx="50" ry="50" style="fill:#FFFFFF;" />
		<ellipse cx="-47.5" cy="37.5" rx="37.5" ry="37.5" style="fill:#588157;" />
		<ellipse cx="47.5" cy="37.5" rx="37.5" ry="37.5" style="fill:#588157;" />
		<g transform="matrix(-0.0000000010973858488583232, -0.2934037148952484, 0.2934037148952484, -0.0000000010973858488583232, -0.00006103515625, 100)">
			<path d="M-5.551562309,50.21074295 Q-6.552538872,50.60136795 -7.553515434,50.039844513 Q-8.554491997,49.502735138 -9.360156059,47.989063263 Q-13.339648247,40.591602325 -15.195116997,32.901172638 Q-17.0505867,25.21074295 -17.0505867,17.3005867 Q-17.0505867,7.803516388 -14.658007622,-1.595897675 Q-12.241015434,-10.995311737 -7.944140434,-19.637889862 Q-3.647264481,-28.30488205 2.138868332,-35.799999237 Q7.949415207,-43.295116425 14.638866425,-49.1056633 Q16.05488205,-50.204296112 17.299999237,-50.350780487 Q18.545116425,-50.497264862 19.253124237,-49.6916008 Q20.0587883,-48.788280487 19.790233612,-47.64081955 Q19.546092987,-46.493358612 18.349803925,-45.3947258 Q12.0509758,-39.803905487 6.704298019,-32.552928925 Q1.357618332,-25.301952362 -2.695116043,-17.001171112 Q-6.747851372,-8.700389862 -8.945116997,0.01543045 Q-11.142382622,8.7068367 -11.142382622,17.3005867 Q-11.142382622,25.21074295 -9.506640434,32.290821075 Q-7.846484184,39.395313263 -4.452928543,45.791797638 Q-3.647264481,47.403125763 -4.062303543,48.5505867 Q-4.452928543,49.698047638 -5.551562309,50.21074295 Z" fill="#FFFFFF" />
		</g>
	</g>
</svg>